<svg width="25" height="21" xmlns="http://www.w3.org/2000/svg"><path d="M23.679 1h-3.227a.32.32 0 0 0-.321.321V8.37h-3.274V1.321A.32.32 0 0 0 16.536 1H13.32a.32.32 0 0 0-.321.321v18.155a.32.32 0 0 0 .321.322h3.227a.32.32 0 0 0 .321-.322V12.18h3.274v7.297a.32.32 0 0 0 .321.322h3.226a.32.32 0 0 0 .322-.322V1.321A.32.32 0 0 0 23.69 1h-.011zM6.071.607h-.023A5.426 5.426 0 0 0 2 2.202l.036-.047A6.03 6.03 0 0 0 .57 6.429v7.773-.035a6.02 6.02 0 0 0 1.393 4.285l-.012-.012A5.426 5.426 0 0 0 6 20.036h.06a5.426 5.426 0 0 0 4.047-1.596 6.02 6.02 0 0 0 1.393-4.285V9.929a.338.338 0 0 0-.333-.322H6.405a.35.35 0 0 0-.345.322v3.166c.011.19.154.334.345.334h1.31v.726a2.398 2.398 0 0 1-.453 1.524l.012-.012a1.38 1.38 0 0 1-1.179.523h-.024a1.36 1.36 0 0 1-1.178-.5 2.296 2.296 0 0 1-.476-1.511V6.476v.012a2.346 2.346 0 0 1 .5-1.548 1.38 1.38 0 0 1 1.178-.523h.024a1.36 1.36 0 0 1 1.179.5l.023.023c.298.453.44.989.393 1.536v.714a.314.314 0 0 0 .322.286h3.226c.167 0 .31-.119.321-.286v-.75.024a5.958 5.958 0 0 0-1.476-4.262h.012A5.472 5.472 0 0 0 6.071.607z" fill="#F63440"/></svg>