<svg width="25" height="23" xmlns="http://www.w3.org/2000/svg"><g fill="none"><path d="M0 11V2.786C.082 1.015.95-.106 2.738.008 5.27.575 8.524.891 12.5.953c3.976-.062 7.23-.378 9.762-.945C24.05-.106 24.918 1.015 25 2.786v17.428c-.082 1.771-.95 2.892-2.738 2.778-2.532-.567-5.786-.883-9.762-.945-3.976.062-7.23.378-9.762.945C.95 23.106.082 21.985 0 20.214V11z" fill="#C90017"/><path d="M8 13.231v1.202C8 16.152 10.439 17 12.415 17 14.854 17 17 15.916 17 13.797c0-2.12-1.976-2.733-3.659-3.251-1.219-.377-2.439-.73-2.439-1.649 0-.918.78-1.013 1.683-1.013s1.659.354 1.659.919v.73h2.341V8.191C16.585 6.612 14.146 6 12.66 6c-1.976 0-4.269.8-4.269 3.015 0 2.214 1.854 2.615 3.561 3.18 1.708.565 2.44.777 2.44 1.696 0 .918-.83 1.154-1.928 1.154-1.097 0-2.243-.377-2.243-1.154v-.636L8 13.23z" fill="#FFF"/></g></svg>